<svg width="7" height="5" viewBox="0 0 7 5" fill="none" xmlns="http://www.w3.org/2000/svg">
<path d="M4.98094 0.323842C5.29384 -0.0306659 5.82983 -0.103952 6.23158 0.152842C6.41858 0.265301 6.54688 0.450141 6.58395 0.660498C6.62102 0.870855 6.56329 1.08653 6.42542 1.25284L3.65503 4.59984C3.50582 4.77307 3.29045 4.88007 3.05832 4.89629C2.82619 4.9125 2.59723 4.83655 2.42397 4.68584L0.261894 2.77084C0.0954985 2.63012 0 2.42646 0 2.21234C0 1.99822 0.0954985 1.79456 0.261894 1.65384C0.623936 1.34518 1.16596 1.34518 1.528 1.65384L2.88691 2.85284L4.98094 0.323842Z" fill="white"/>
</svg>
