<svg width="37" height="37" viewBox="0 0 37 37" fill="none" xmlns="http://www.w3.org/2000/svg">
<circle cx="18.5" cy="18.5" r="18.5" fill="#C8C8D6"/>
<path d="M12.5289 12.7232L12.6066 12.636C12.9692 12.2734 13.541 12.2475 13.9336 12.5583L14.0208 12.636L18.9705 17.5858L23.9203 12.636C24.2829 12.2734 24.8547 12.2475 25.2473 12.5583L25.3345 12.636C25.6971 12.9986 25.7231 13.5705 25.4122 13.9631L25.3345 14.0503L20.3848 19L25.3345 23.9497C25.6971 24.3124 25.7231 24.8842 25.4122 25.2768L25.3345 25.364C24.9719 25.7266 24.4001 25.7525 24.0075 25.4417L23.9203 25.364L18.9705 20.4142L14.0208 25.364C13.6582 25.7266 13.0863 25.7525 12.6938 25.4417L12.6066 25.364C12.244 25.0014 12.218 24.4295 12.5289 24.0369L12.6066 23.9497L17.5563 19L12.6066 14.0503C12.2439 13.6876 12.218 13.1158 12.5289 12.7232Z" fill="#212121"/>
</svg>
