<svg width="260" height="108" viewBox="0 0 260 108" fill="none" xmlns="http://www.w3.org/2000/svg">
<g clip-path="url(#clip0_163_15295)">
<path d="M187.741 25.9809C188.843 25.9809 189.737 25.0915 189.737 23.9943C189.737 22.8972 188.843 22.0078 187.741 22.0078C186.638 22.0078 185.745 22.8972 185.745 23.9943C185.745 25.0915 186.638 25.9809 187.741 25.9809Z" fill="#EB6B2A"/>
<path d="M193.064 22.6703C194.167 22.6703 195.061 21.7809 195.061 20.6838C195.061 19.5867 194.167 18.6973 193.064 18.6973C191.962 18.6973 191.068 19.5867 191.068 20.6838C191.068 21.7809 191.962 22.6703 193.064 22.6703Z" fill="#EB6B2A"/>
<path d="M199.718 19.3595C200.821 19.3595 201.714 18.4701 201.714 17.373C201.714 16.2759 200.821 15.3865 199.718 15.3865C198.615 15.3865 197.722 16.2759 197.722 17.373C197.722 18.4701 198.615 19.3595 199.718 19.3595Z" fill="#EB6B2A"/>
<path d="M197.722 25.9809C198.825 25.9809 199.719 25.0915 199.719 23.9943C199.719 22.8972 198.825 22.0078 197.722 22.0078C196.62 22.0078 195.726 22.8972 195.726 23.9943C195.726 25.0915 196.62 25.9809 197.722 25.9809Z" fill="#EB6B2A"/>
<path d="M193.729 30.6159C194.832 30.6159 195.726 29.7265 195.726 28.6294C195.726 27.5322 194.832 26.6428 193.729 26.6428C192.627 26.6428 191.733 27.5322 191.733 28.6294C191.733 29.7265 192.627 30.6159 193.729 30.6159Z" fill="#EB6B2A"/>
<path d="M187.741 31.9401C188.843 31.9401 189.737 31.0507 189.737 29.9536C189.737 28.8564 188.843 27.967 187.741 27.967C186.638 27.967 185.745 28.8564 185.745 29.9536C185.745 31.0507 186.638 31.9401 187.741 31.9401Z" fill="#EB6B2A"/>
<path d="M181.752 30.6159C182.855 30.6159 183.749 29.7265 183.749 28.6294C183.749 27.5322 182.855 26.6428 181.752 26.6428C180.65 26.6428 179.756 27.5322 179.756 28.6294C179.756 29.7265 180.65 30.6159 181.752 30.6159Z" fill="#EB6B2A"/>
<path d="M177.095 25.9809C178.197 25.9809 179.091 25.0915 179.091 23.9943C179.091 22.8972 178.197 22.0078 177.095 22.0078C175.992 22.0078 175.098 22.8972 175.098 23.9943C175.098 25.0915 175.992 25.9809 177.095 25.9809Z" fill="#EB6B2A"/>
<path d="M182.418 22.6703C183.521 22.6703 184.414 21.7809 184.414 20.6838C184.414 19.5867 183.521 18.6973 182.418 18.6973C181.315 18.6973 180.422 19.5867 180.422 20.6838C180.422 21.7809 181.315 22.6703 182.418 22.6703Z" fill="#EB6B2A"/>
<path d="M187.741 20.0219C188.843 20.0219 189.737 19.1325 189.737 18.0354C189.737 16.9382 188.843 16.0488 187.741 16.0488C186.638 16.0488 185.745 16.9382 185.745 18.0354C185.745 19.1325 186.638 20.0219 187.741 20.0219Z" fill="#EB6B2A"/>
<path d="M193.064 16.7111C194.167 16.7111 195.061 15.8217 195.061 14.7246C195.061 13.6274 194.167 12.738 193.064 12.738C191.962 12.738 191.068 13.6274 191.068 14.7246C191.068 15.8217 191.962 16.7111 193.064 16.7111Z" fill="#EB6B2A"/>
<path d="M187.741 13.4006C188.476 13.4006 189.072 12.8077 189.072 12.0764C189.072 11.3451 188.476 10.7522 187.741 10.7522C187.006 10.7522 186.41 11.3451 186.41 12.0764C186.41 12.8077 187.006 13.4006 187.741 13.4006Z" fill="#EB6B2A"/>
<path d="M182.418 16.0488C183.153 16.0488 183.749 15.4559 183.749 14.7246C183.749 13.9932 183.153 13.4004 182.418 13.4004C181.683 13.4004 181.087 13.9932 181.087 14.7246C181.087 15.4559 181.683 16.0488 182.418 16.0488Z" fill="#EB6B2A"/>
<path d="M175.764 18.6972C176.499 18.6972 177.095 18.1043 177.095 17.373C177.095 16.6417 176.499 16.0488 175.764 16.0488C175.029 16.0488 174.433 16.6417 174.433 17.373C174.433 18.1043 175.029 18.6972 175.764 18.6972Z" fill="#EB6B2A"/>
<path d="M176.762 12.7382C177.313 12.7382 177.76 12.2936 177.76 11.7452C177.76 11.1968 177.313 10.7522 176.762 10.7522C176.211 10.7522 175.764 11.1968 175.764 11.7452C175.764 12.2936 176.211 12.7382 176.762 12.7382Z" fill="#EB6B2A"/>
<path d="M181.752 8.10376C182.12 8.10376 182.418 7.80721 182.418 7.4414C182.418 7.0756 182.12 6.77905 181.752 6.77905C181.385 6.77905 181.087 7.0756 181.087 7.4414C181.087 7.80721 181.385 8.10376 181.752 8.10376Z" fill="#EB6B2A"/>
<path d="M187.741 6.77954C188.108 6.77954 188.407 6.48299 188.407 6.11719C188.407 5.75138 188.108 5.45483 187.741 5.45483C187.373 5.45483 187.075 5.75138 187.075 6.11719C187.075 6.48299 187.373 6.77954 187.741 6.77954Z" fill="#EB6B2A"/>
<path d="M197.722 14.0629C198.825 14.0629 199.719 13.1735 199.719 12.0764C199.719 10.9792 198.825 10.0898 197.722 10.0898C196.62 10.0898 195.726 10.9792 195.726 12.0764C195.726 13.1735 196.62 14.0629 197.722 14.0629Z" fill="#EB6B2A"/>
<path d="M193.729 9.4279C194.832 9.4279 195.726 8.5385 195.726 7.44137C195.726 6.34423 194.832 5.45483 193.729 5.45483C192.627 5.45483 191.733 6.34423 191.733 7.44137C191.733 8.5385 192.627 9.4279 193.729 9.4279Z" fill="#EB6B2A"/>
<path d="M9.57117 31.095V4.7877H2.06944C0.983196 4.7877 0 3.86114 0 2.72844C0 1.59575 0.983196 0.720459 2.06944 0.720459H21.574C22.6608 0.720459 23.6435 1.64754 23.6435 2.72844C23.6435 3.80934 22.6603 4.7877 21.574 4.7877H14.1238V31.095C14.1238 32.3302 13.0891 33.3604 11.8478 33.3604C10.6064 33.3604 9.57117 32.3308 9.57117 31.095Z" fill="#3F485E"/>
<path d="M27.2629 31.2493V2.11053C27.2629 0.977832 28.1946 0 29.3839 0C30.5732 0 31.4533 0.978356 31.4533 2.11053V12.9216C33.3156 10.2445 35.9024 8.85438 39.2138 8.85438C44.8532 8.85438 48.6298 12.6642 48.6298 18.2754V31.2488C48.6298 32.3815 47.6982 33.3598 46.5089 33.3598C45.3196 33.3598 44.4394 32.3815 44.4394 31.2488V19.5111C44.4394 15.2383 42.1113 12.7673 38.2311 12.7673C34.3509 12.7673 31.4533 15.5988 31.4533 19.7691V31.2493C31.4533 32.382 30.5222 33.3604 29.3839 33.3604C28.2456 33.3604 27.2629 32.382 27.2629 31.2493Z" fill="#3F485E"/>
<path d="M53.0768 21.3136C53.0768 15.1358 57.2672 8.85498 64.5623 8.85498C71.288 8.85498 75.3753 14.0549 75.6335 19.3574C75.6335 20.9536 75.2712 21.9315 73.5641 21.9315H57.2672C57.5259 26.6679 60.7336 29.4475 65.8036 29.4475C67.8731 29.4475 69.6838 29.0871 71.4431 28.3661C72.685 27.9031 73.9784 28.7266 73.9784 30.0136C73.9784 30.6828 73.6161 31.3007 73.0472 31.6099C70.9262 32.7938 68.4945 33.3604 65.8042 33.3604C58.6126 33.3604 53.0773 28.1605 53.0773 21.3136H53.0768ZM71.4431 18.5846C71.1844 15.2896 68.2353 12.7674 64.5108 12.7674C60.7862 12.7674 57.8887 15.2389 57.4743 18.5846H71.4431Z" fill="#3F485E"/>
<path d="M80.582 31.095V2.83151C80.582 1.49268 81.3581 0.720459 82.703 0.720459H93.4645C99.9315 0.720459 104.07 4.37595 104.07 10.1414C104.07 15.9069 99.9315 19.6142 93.4645 19.6142H85.1347V31.095C85.1347 32.3302 84.1 33.3604 82.8586 33.3604C81.6173 33.3604 80.582 32.3308 80.582 31.095ZM85.1347 15.5475H93.516C97.4483 15.5475 99.5177 13.6426 99.5177 10.142C99.5177 6.64134 97.4483 4.7877 93.5681 4.7877L85.1347 4.83949V15.5475Z" fill="#3F485E"/>
<path d="M108.207 31.2493V2.11053C108.207 0.977833 109.138 0 110.328 0C111.517 0 112.397 0.978356 112.397 2.11053V31.2488C112.397 32.3815 111.466 33.3598 110.328 33.3598C109.189 33.3598 108.207 32.3815 108.207 31.2488V31.2493Z" fill="#3F485E"/>
<path d="M117.001 25.5865C117.001 21.2105 121.089 18.0186 126.675 18.0186C129.625 18.0186 132.108 18.8939 133.66 20.4896V17.8125C133.66 14.6205 131.384 12.7674 127.244 12.7674C125.434 12.7674 123.778 13.1791 122.174 13.797C121.088 14.2088 119.588 13.4365 119.588 12.047C119.588 11.2742 120.053 10.6569 120.777 10.3477C122.743 9.52417 125.278 8.85449 128.02 8.85449C133.97 8.85449 137.85 12.2008 137.85 17.5033V31.2489C137.85 32.4329 136.919 33.3599 135.781 33.3599C134.643 33.3599 133.659 32.5359 133.659 31.0428V30.7854C132.469 32.0724 129.728 33.4107 126.675 33.4107C120.984 33.4107 117.001 30.167 117.001 25.5854L117.001 25.5865ZM133.763 25.5865C133.763 22.8063 130.349 21.5192 127.245 21.5192C124.141 21.5192 121.192 22.8063 121.192 25.5865C121.192 28.3667 124.141 29.6537 127.245 29.6537C130.349 29.6537 133.763 28.4185 133.763 25.5865Z" fill="#3F485E"/>
<path d="M152.904 32.9994C150.368 33.5655 148.351 33.4112 147.006 32.4846C145.454 31.3006 144.73 29.3439 144.73 26.4612V13.4878H143.333C142.246 13.4878 141.367 12.6125 141.367 11.5316C141.367 10.4507 142.246 9.57539 143.333 9.57539H144.73V5.71429C144.73 4.58159 145.661 3.60376 146.851 3.60376C148.04 3.60376 148.92 4.58212 148.92 5.71429V9.57539H151.041C152.128 9.57539 153.007 10.4507 153.007 11.5316C153.007 12.6125 152.127 13.4878 151.041 13.4878H148.92V26.2033C148.92 27.5421 149.179 28.4686 149.696 28.8804C150.265 29.3952 151.144 29.4465 152.179 29.2409C153.318 29.0347 154.404 29.9618 154.404 31.1458C154.404 32.0211 153.732 32.7933 152.904 32.9989V32.9994Z" fill="#3F485E"/>
<path d="M159.783 31.2493V13.4882H158.128C157.041 13.4882 156.162 12.6129 156.162 11.532C156.162 10.4511 157.041 9.57582 158.128 9.57582H159.783V7.4135C159.783 4.73636 160.404 2.83196 161.594 1.5962C162.681 0.514779 164.181 0.000488281 166.095 0.000488281C167.595 0.000488281 168.527 0.463507 168.527 2.00795C168.527 3.19192 167.492 3.96414 166.199 3.96414C165.474 3.96414 164.957 4.11848 164.595 4.53022C164.181 4.99324 163.974 5.86853 163.974 7.20736V9.57582H166.561C167.647 9.57582 168.526 10.4511 168.526 11.532C168.526 12.6129 167.647 13.4882 166.561 13.4882H163.974V31.2493C163.974 32.382 163.043 33.3603 161.904 33.3603C160.766 33.3603 159.783 32.382 159.783 31.2493H159.783Z" fill="#3F485E"/>
<path d="M208.523 31.2494V10.9655C208.523 9.83285 209.455 8.85449 210.593 8.85449C211.73 8.85449 212.714 9.83285 212.714 10.9655V12.047C213.8 10.7081 215.507 9.78158 217.473 9.4729C218.612 9.31856 219.646 10.1938 219.646 11.326C219.646 12.3556 218.715 13.0248 217.681 13.1791C215.456 13.5396 212.714 14.5174 212.714 17.0402V31.2489C212.714 32.3816 211.783 33.3599 210.645 33.3599C209.506 33.3599 208.524 32.3816 208.524 31.2489L208.523 31.2494Z" fill="#3F485E"/>
<path d="M223.578 31.2494V10.9655C223.578 9.83285 224.509 8.85449 225.647 8.85449C226.785 8.85449 227.768 9.83285 227.768 10.9655V12.7674C229.269 10.7081 231.338 8.85449 235.011 8.85449C238.684 8.85449 241.478 10.8107 242.824 13.2304C244.789 10.2964 247.48 8.85449 250.946 8.85449C256.43 8.85449 259.999 12.5613 259.999 18.2755V31.2489C259.999 32.3816 259.068 33.3599 257.878 33.3599C256.689 33.3599 255.809 32.3816 255.809 31.2489V19.5625C255.809 15.2384 253.74 12.7669 250.067 12.7669C246.393 12.7669 243.962 15.5983 243.962 19.7169V31.2489C243.962 32.3816 243.03 33.3599 241.841 33.3599C240.652 33.3599 239.771 32.3816 239.771 31.2489V19.46C239.771 15.2902 237.547 12.7674 233.977 12.7674C230.407 12.7674 227.769 15.805 227.769 19.8717V31.2489C227.769 32.3816 226.837 33.3599 225.699 33.3599C224.561 33.3599 223.578 32.3816 223.578 31.2489L223.578 31.2494Z" fill="#3F485E"/>
<path d="M14.4961 64.7493C14.4961 63.379 15.1365 62.6963 16.4178 62.6963C17.6991 62.6963 18.3169 63.3785 18.3169 64.7493C18.3169 66.12 17.6849 66.7824 16.4178 66.7824C15.1507 66.7824 14.4961 66.1054 14.4961 64.7493Z" fill="#3F485E"/>
<path d="M8.88342 64.7493C8.88342 63.379 9.5154 62.6963 10.7857 62.6963C12.0559 62.6963 12.7047 63.3785 12.7047 64.7493C12.7047 66.12 12.0643 66.7824 10.7857 66.7824C9.50699 66.7824 8.88342 66.1054 8.88342 64.7493Z" fill="#3F485E"/>
<path d="M95.3915 65.769V63.4664H97.3106V65.4294C97.3106 66.1792 97.4204 66.7013 97.6349 66.999C97.8495 67.2967 98.2333 67.4453 98.7832 67.4453C99.8584 67.4453 100.397 66.8865 100.397 65.769V62.5368H102.119V65.036C102.119 66.1535 102.585 66.7154 103.518 66.7154C104.176 66.7154 104.622 66.5579 104.856 66.2409C105.087 65.9265 105.206 65.4127 105.206 64.6965V62.0005H107.125V65.036C107.125 67.3919 106.073 68.5712 103.967 68.5712C102.844 68.5712 101.98 68.206 101.385 67.4814C100.75 68.6946 99.757 69.301 98.4052 69.301C96.3957 69.301 95.3915 68.1244 95.3915 65.7685V65.769Z" fill="#3F485E"/>
<path d="M180.892 64.7493C180.892 63.379 181.527 62.6963 182.794 62.6963C184.061 62.6963 184.696 63.3785 184.696 64.7493C184.696 66.12 184.061 66.7824 182.794 66.7824C181.527 66.7824 180.892 66.1054 180.892 64.7493Z" fill="#3F485E"/>
<path d="M246.018 85.027H235.288C236.186 84.4091 236.908 83.5024 237.45 82.3059C237.994 81.1099 238.268 79.8741 238.268 78.6022C238.268 75.8419 237.492 73.6796 235.942 72.121C234.396 70.5625 232.375 69.7819 229.889 69.7819C227.403 69.7819 225.235 70.7001 223.647 72.5312C222.055 74.365 221.259 76.7151 221.259 79.5822C221.259 81.9381 221.666 83.7551 222.481 85.027H188.084C186.986 85.027 186.103 84.7125 185.44 84.0805C184.777 83.4516 184.444 82.6004 184.444 81.5279V70.158H181.179V85.027H116.191C115.091 85.027 114.207 84.7209 113.544 84.1088C112.881 83.4966 112.547 82.6962 112.547 81.7079V79.0653C112.547 72.876 109.742 69.7819 104.135 69.7819C99.7102 69.7819 96.3179 72.5255 93.9619 78.0126V71.2478H90.8409V85.027H20.4536V70.158H14.9114C11.8835 70.158 9.45074 70.9978 7.60791 72.674C5.76823 74.3535 4.84497 76.6445 4.84497 79.5482C4.84497 82.1541 5.59262 84.1956 7.08844 85.67C8.58427 87.1469 10.6274 87.8825 13.2237 87.8825H93.9635V85.0631C94.9456 86.9444 96.1954 87.8825 97.7138 87.8825H112.549V85.7934C113.232 87.1861 114.601 87.8825 116.658 87.8825H184.445V85.7934C185.15 87.1861 186.525 87.8825 188.571 87.8825H249.283V60.1077H246.018V85.027ZM17.3321 85.027H13.1327C9.78566 85.027 8.1095 83.1874 8.1095 79.5121C8.1095 77.4764 8.71045 75.8812 9.9129 74.727C11.1148 73.5729 12.8167 72.9942 15.0182 72.9942H17.3321V85.027ZM109.428 85.027H97.5897C95.544 85.027 94.3583 83.9795 94.0371 81.8847C96.5713 75.7462 99.7176 72.674 103.474 72.674C107.444 72.674 109.428 74.8589 109.428 79.2254V85.027ZM233.452 83.3057C232.441 84.4541 231.008 85.027 229.154 85.027H225.818C224.958 83.8503 224.526 82.0333 224.526 79.5822C224.526 77.4539 225.034 75.7577 226.053 74.4937C227.069 73.2328 228.336 72.6039 229.854 72.6039C231.373 72.6039 232.62 73.1261 233.559 74.1735C234.499 75.2209 234.967 76.6612 234.967 78.4924C234.967 80.5537 234.462 82.1568 233.452 83.3057H233.452Z" fill="#3F485E"/>
<path d="M258.79 60.1077H255.525V87.8825H258.79V60.1077Z" fill="#3F485E"/>
<path d="M220.786 49.021V41.4724C220.786 41.1491 221.057 40.8792 221.382 40.8792C221.585 40.8792 221.761 40.9869 221.87 41.1355L224.714 45.2467L227.559 41.1355C227.667 40.9875 227.843 40.8792 228.047 40.8792C228.372 40.8792 228.643 41.1486 228.643 41.4724V49.021C228.643 49.3443 228.372 49.6142 228.047 49.6142C227.721 49.6142 227.45 49.3448 227.45 49.021V43.2387L225.107 46.6222C224.877 46.9591 224.552 46.9591 224.322 46.6222L221.978 43.2387V49.021C221.978 49.3443 221.707 49.6142 221.382 49.6142C221.057 49.6142 220.786 49.3448 220.786 49.021Z" fill="#3F485E"/>
<path d="M231.785 47.5786C231.785 46.4329 232.855 45.5973 234.318 45.5973C235.09 45.5973 235.74 45.8265 236.147 46.2445V45.5434C236.147 44.7079 235.551 44.2224 234.467 44.2224C233.993 44.2224 233.559 44.3302 233.139 44.4918C232.855 44.5996 232.462 44.3977 232.462 44.0335C232.462 43.8311 232.584 43.6694 232.774 43.5888C233.289 43.3733 233.952 43.198 234.67 43.198C236.228 43.198 237.244 44.0743 237.244 45.4623V49.0613C237.244 49.3716 237 49.6138 236.702 49.6138C236.404 49.6138 236.147 49.3983 236.147 49.0074V48.94C235.835 49.2769 235.117 49.6274 234.318 49.6274C232.828 49.6274 231.785 48.7783 231.785 47.5786ZM236.174 47.5786C236.174 46.8509 235.28 46.5139 234.467 46.5139C233.654 46.5139 232.882 46.8509 232.882 47.5786C232.882 48.3064 233.654 48.6433 234.467 48.6433C235.28 48.6433 236.174 48.32 236.174 47.5786Z" fill="#3F485E"/>
<path d="M240.603 49.0613V43.7505C240.603 43.4538 240.847 43.198 241.145 43.198C241.443 43.198 241.7 43.4544 241.7 43.7505V44.0335C241.985 43.683 242.432 43.4402 242.947 43.3597C243.245 43.3194 243.515 43.5485 243.515 43.8452C243.515 44.1146 243.271 44.2899 243.001 44.3307C242.418 44.4249 241.7 44.6812 241.7 45.3415V49.0619C241.7 49.3585 241.457 49.6143 241.158 49.6143C240.86 49.6143 240.603 49.358 240.603 49.0619V49.0613Z" fill="#3F485E"/>
<path d="M249.99 43.3596C250.085 43.2654 250.207 43.1979 250.356 43.1979C250.627 43.1979 250.857 43.4271 250.857 43.6965C250.857 43.8315 250.803 43.9529 250.722 44.0334L248.541 46.1225L250.844 48.7777C250.925 48.8588 250.979 48.9801 250.979 49.1146C250.979 49.384 250.749 49.6132 250.478 49.6132C250.33 49.6132 250.194 49.5457 250.112 49.4515L247.471 46.4186V49.0607C247.471 49.3574 247.227 49.6132 246.929 49.6132C246.631 49.6132 246.374 49.3568 246.374 49.0607V41.4316C246.374 41.135 246.618 40.8792 246.929 40.8792C247.24 40.8792 247.471 41.1355 247.471 41.4316V45.8123L249.99 43.359V43.3596Z" fill="#3F485E"/>
<path d="M253.62 47.5786C253.62 46.4329 254.69 45.5973 256.153 45.5973C256.925 45.5973 257.576 45.8265 257.982 46.2445V45.5434C257.982 44.7079 257.386 44.2224 256.302 44.2224C255.828 44.2224 255.395 44.3302 254.975 44.4918C254.69 44.5996 254.298 44.3977 254.298 44.0335C254.298 43.8311 254.419 43.6694 254.609 43.5888C255.124 43.3733 255.788 43.198 256.506 43.198C258.064 43.198 259.079 44.0743 259.079 45.4623V49.0613C259.079 49.3716 258.835 49.6138 258.537 49.6138C258.239 49.6138 257.982 49.3983 257.982 49.0074V48.94C257.67 49.2769 256.953 49.6274 256.153 49.6274C254.663 49.6274 253.62 48.7783 253.62 47.5786ZM258.009 47.5786C258.009 46.8509 257.115 46.5139 256.302 46.5139C255.489 46.5139 254.718 46.8509 254.718 47.5786C254.718 48.3064 255.489 48.6433 256.302 48.6433C257.115 48.6433 258.009 48.32 258.009 47.5786Z" fill="#3F485E"/>
<path d="M7.00378 105.021V95.3567H8.04692V105.021H7.00378ZM8.04692 105.021V104.064H9.69942V105.021H8.04692ZM9.69942 105.021V104.064C9.75358 104.064 9.79879 104.076 9.83507 104.098C9.87082 104.12 9.89816 104.151 9.91657 104.192C9.93444 104.232 9.94811 104.282 9.95705 104.34C9.96599 104.398 9.97072 104.463 9.97072 104.535C9.97072 104.608 9.96599 104.675 9.95705 104.738C9.94811 104.801 9.93444 104.852 9.91657 104.893C9.89816 104.933 9.87135 104.965 9.83507 104.987C9.79879 105.009 9.75358 105.02 9.69942 105.02V105.021Z" fill="#3F485E"/>
<path d="M9.6994 105.021C9.64524 105.021 9.60003 105.01 9.56375 104.987C9.528 104.965 9.50066 104.934 9.48226 104.893C9.46438 104.853 9.45071 104.801 9.44177 104.738C9.43283 104.676 9.4281 104.608 9.4281 104.536C9.4281 104.437 9.43494 104.354 9.44861 104.286C9.46228 104.219 9.48909 104.165 9.5301 104.125C9.57058 104.084 9.62737 104.064 9.6994 104.064V105.021ZM9.6994 105.021V104.064H16.4724L16.0933 104.401V102.002C16.0933 101.516 16.0276 101.114 15.8967 100.795C15.7658 100.477 15.5718 100.238 15.3141 100.081C15.057 99.924 14.7337 99.845 14.3457 99.845H11.3929L10.6211 98.6857L11.2036 97.5671C11.3119 97.3693 11.425 97.1674 11.5422 96.9607C11.6595 96.7541 11.8041 96.516 11.9755 96.2466C12.1469 95.9771 12.3635 95.6491 12.6259 95.2625L13.5065 95.7883C13.2447 96.1838 13.0323 96.5118 12.8698 96.7724C12.7073 97.0329 12.5696 97.2579 12.4566 97.4462C12.3435 97.6351 12.2373 97.8234 12.1385 98.0123L11.4613 99.3061L11.1905 98.8881H14.3467C14.9156 98.8881 15.383 98.9849 15.7484 99.178C16.1144 99.3715 16.3988 99.6253 16.6017 99.9397C16.8047 100.254 16.9472 100.593 17.0287 100.957C17.1102 101.321 17.1507 101.669 17.1507 102.002V105.021H9.70045L9.6994 105.021Z" fill="#3F485E"/>
<path d="M18.9646 108C18.8474 108 18.7233 107.993 18.5918 107.98C18.4609 107.966 18.3321 107.954 18.2059 107.946L18.3279 106.989C18.4546 106.998 18.5719 107.01 18.6802 107.023C18.7885 107.036 18.8831 107.043 18.9646 107.043C19.3889 107.043 19.7323 106.883 19.9941 106.564C20.2559 106.245 20.3868 105.803 20.3868 105.236V98.2812H21.4436V105.236C21.4436 105.784 21.3374 106.268 21.1256 106.686C20.9131 107.104 20.6219 107.427 20.2517 107.656C19.8816 107.885 19.4525 108 18.9646 108Z" fill="#3F485E"/>
<path d="M24.3827 105.021V95.3567H25.4258V105.021H24.3827ZM25.4258 105.021V104.064H27.0783V105.021H25.4258ZM27.0783 105.021V104.064C27.1325 104.064 27.1777 104.076 27.214 104.098C27.2497 104.12 27.2771 104.151 27.2955 104.192C27.3134 104.232 27.327 104.282 27.336 104.34C27.3449 104.398 27.3496 104.463 27.3496 104.535C27.3496 104.608 27.3449 104.675 27.336 104.738C27.327 104.801 27.3134 104.852 27.2955 104.893C27.2771 104.933 27.2503 104.965 27.214 104.987C27.1777 105.009 27.1325 105.02 27.0783 105.02V105.021Z" fill="#3F485E"/>
<path d="M27.0783 105.021C27.0242 105.021 26.9789 105.01 26.9427 104.987C26.9069 104.965 26.8796 104.934 26.8612 104.893C26.8433 104.853 26.8296 104.801 26.8207 104.738C26.8117 104.676 26.807 104.608 26.807 104.536C26.807 104.437 26.8138 104.354 26.8275 104.286C26.8412 104.219 26.868 104.165 26.909 104.125C26.95 104.084 27.0063 104.064 27.0783 104.064V105.021ZM27.0783 105.021V104.064H34.4875L33.702 104.616V101.719C33.702 101.09 33.6294 100.595 33.4854 100.236C33.3408 99.8764 33.0947 99.6206 32.7472 99.4678C32.3997 99.3151 31.9275 99.2387 31.3318 99.2387C30.9527 99.2387 30.5752 99.2659 30.2009 99.3198C29.826 99.3737 29.5347 99.4459 29.327 99.5353L29.9637 98.8881C29.9096 99.1037 29.8554 99.3757 29.8013 99.7038C29.7471 100.032 29.7019 100.384 29.6656 100.762C29.6294 101.139 29.6115 101.517 29.6115 101.894C29.6115 102.271 29.6294 102.658 29.6656 103.026C29.7014 103.394 29.7424 103.713 29.7876 103.983C29.8328 104.252 29.8691 104.441 29.8959 104.549L28.8938 104.832C28.8575 104.715 28.8144 104.513 28.765 104.226C28.715 103.938 28.6703 103.592 28.6293 103.188C28.5883 102.783 28.5683 102.352 28.5683 101.894C28.5683 101.436 28.5889 101.024 28.6293 100.607C28.6698 100.189 28.7192 99.8095 28.7781 99.4678C28.837 99.1262 28.8933 98.8526 28.9474 98.6454C29.1462 98.5643 29.4622 98.4837 29.8954 98.4026C30.3286 98.3215 30.8076 98.2812 31.3313 98.2812C32.09 98.2812 32.7241 98.3937 33.2346 98.6182C33.7446 98.8431 34.1263 99.2047 34.3792 99.7033C34.6321 100.202 34.7583 100.874 34.7583 101.719V105.021H27.0778H27.0783Z" fill="#3F485E"/>
</g>
<defs>
<clipPath id="clip0_163_15295">
<rect width="260" height="108" fill="white"/>
</clipPath>
</defs>
</svg>
