<svg width="169" height="70" viewBox="0 0 169 70" fill="none" xmlns="http://www.w3.org/2000/svg">
<g clip-path="url(#clip0_580_4792)">
<path d="M122.032 16.8395C122.749 16.8395 123.33 16.2631 123.33 15.552C123.33 14.8409 122.749 14.2644 122.032 14.2644C121.315 14.2644 120.734 14.8409 120.734 15.552C120.734 16.2631 121.315 16.8395 122.032 16.8395Z" fill="#EB6B2A"/>
<path d="M125.492 14.6937C126.209 14.6937 126.79 14.1172 126.79 13.4061C126.79 12.695 126.209 12.1185 125.492 12.1185C124.775 12.1185 124.194 12.695 124.194 13.4061C124.194 14.1172 124.775 14.6937 125.492 14.6937Z" fill="#EB6B2A"/>
<path d="M129.817 12.5478C130.534 12.5478 131.115 11.9713 131.115 11.2602C131.115 10.5491 130.534 9.97266 129.817 9.97266C129.1 9.97266 128.52 10.5491 128.52 11.2602C128.52 11.9713 129.1 12.5478 129.817 12.5478Z" fill="#EB6B2A"/>
<path d="M128.519 16.8395C129.236 16.8395 129.817 16.2631 129.817 15.552C129.817 14.8409 129.236 14.2644 128.519 14.2644C127.803 14.2644 127.222 14.8409 127.222 15.552C127.222 16.2631 127.803 16.8395 128.519 16.8395Z" fill="#EB6B2A"/>
<path d="M125.925 19.8436C126.641 19.8436 127.222 19.2671 127.222 18.556C127.222 17.8449 126.641 17.2684 125.925 17.2684C125.208 17.2684 124.627 17.8449 124.627 18.556C124.627 19.2671 125.208 19.8436 125.925 19.8436Z" fill="#EB6B2A"/>
<path d="M122.032 20.7018C122.749 20.7018 123.33 20.1254 123.33 19.4143C123.33 18.7032 122.749 18.1267 122.032 18.1267C121.315 18.1267 120.734 18.7032 120.734 19.4143C120.734 20.1254 121.315 20.7018 122.032 20.7018Z" fill="#EB6B2A"/>
<path d="M118.139 19.8436C118.856 19.8436 119.437 19.2671 119.437 18.556C119.437 17.8449 118.856 17.2684 118.139 17.2684C117.423 17.2684 116.842 17.8449 116.842 18.556C116.842 19.2671 117.423 19.8436 118.139 19.8436Z" fill="#EB6B2A"/>
<path d="M115.112 16.8395C115.829 16.8395 116.41 16.2631 116.41 15.552C116.41 14.8409 115.829 14.2644 115.112 14.2644C114.395 14.2644 113.814 14.8409 113.814 15.552C113.814 16.2631 114.395 16.8395 115.112 16.8395Z" fill="#EB6B2A"/>
<path d="M118.572 14.6937C119.289 14.6937 119.87 14.1172 119.87 13.4061C119.87 12.695 119.289 12.1185 118.572 12.1185C117.855 12.1185 117.274 12.695 117.274 13.4061C117.274 14.1172 117.855 14.6937 118.572 14.6937Z" fill="#EB6B2A"/>
<path d="M122.032 12.9771C122.749 12.9771 123.33 12.4006 123.33 11.6895C123.33 10.9784 122.749 10.402 122.032 10.402C121.315 10.402 120.734 10.9784 120.734 11.6895C120.734 12.4006 121.315 12.9771 122.032 12.9771Z" fill="#EB6B2A"/>
<path d="M125.492 10.8312C126.209 10.8312 126.79 10.2548 126.79 9.54367C126.79 8.83257 126.209 8.2561 125.492 8.2561C124.775 8.2561 124.194 8.83257 124.194 9.54367C124.194 10.2548 124.775 10.8312 125.492 10.8312Z" fill="#EB6B2A"/>
<path d="M122.032 8.6854C122.51 8.6854 122.897 8.30114 122.897 7.82714C122.897 7.35313 122.51 6.96887 122.032 6.96887C121.554 6.96887 121.167 7.35313 121.167 7.82714C121.167 8.30114 121.554 8.6854 122.032 8.6854Z" fill="#EB6B2A"/>
<path d="M118.572 10.402C119.05 10.402 119.437 10.0177 119.437 9.54369C119.437 9.06968 119.05 8.68542 118.572 8.68542C118.094 8.68542 117.707 9.06968 117.707 9.54369C117.707 10.0177 118.094 10.402 118.572 10.402Z" fill="#EB6B2A"/>
<path d="M114.247 12.1185C114.725 12.1185 115.112 11.7342 115.112 11.2602C115.112 10.7862 114.725 10.402 114.247 10.402C113.769 10.402 113.382 10.7862 113.382 11.2602C113.382 11.7342 113.769 12.1185 114.247 12.1185Z" fill="#EB6B2A"/>
<path d="M114.896 8.2561C115.254 8.2561 115.544 7.96794 115.544 7.61249C115.544 7.25703 115.254 6.96887 114.896 6.96887C114.537 6.96887 114.247 7.25703 114.247 7.61249C114.247 7.96794 114.537 8.2561 114.896 8.2561Z" fill="#EB6B2A"/>
<path d="M118.14 5.2524C118.379 5.2524 118.572 5.0602 118.572 4.8231C118.572 4.586 118.379 4.3938 118.14 4.3938C117.901 4.3938 117.707 4.586 117.707 4.8231C117.707 5.0602 117.901 5.2524 118.14 5.2524Z" fill="#EB6B2A"/>
<path d="M122.032 4.39413C122.271 4.39413 122.465 4.20192 122.465 3.96482C122.465 3.72773 122.271 3.53552 122.032 3.53552C121.793 3.53552 121.6 3.72773 121.6 3.96482C121.6 4.20192 121.793 4.39413 122.032 4.39413Z" fill="#EB6B2A"/>
<path d="M128.519 9.11481C129.236 9.11481 129.817 8.53834 129.817 7.82724C129.817 7.11614 129.236 6.53967 128.519 6.53967C127.803 6.53967 127.222 7.11614 127.222 7.82724C127.222 8.53834 127.803 9.11481 128.519 9.11481Z" fill="#EB6B2A"/>
<path d="M125.925 6.11066C126.641 6.11066 127.222 5.53419 127.222 4.82309C127.222 4.11199 126.641 3.53552 125.925 3.53552C125.208 3.53552 124.627 4.11199 124.627 4.82309C124.627 5.53419 125.208 6.11066 125.925 6.11066Z" fill="#EB6B2A"/>
<path d="M6.22126 20.1541V3.10309H1.34514C0.639077 3.10309 0 2.50254 0 1.76839C0 1.03424 0.639077 0.466919 1.34514 0.466919H14.0231C14.7295 0.466919 15.3683 1.06781 15.3683 1.76839C15.3683 2.46897 14.7292 3.10309 14.0231 3.10309H9.1805V20.1541C9.1805 20.9547 8.50793 21.6224 7.70105 21.6224C6.89417 21.6224 6.22126 20.9551 6.22126 20.1541Z" fill="white"/>
<path d="M17.7207 20.2542V1.36793C17.7207 0.63378 18.3263 0 19.0993 0C19.8724 0 20.4445 0.634119 20.4445 1.36793V8.37512C21.655 6.63994 23.3364 5.73895 25.4887 5.73895C29.1544 5.73895 31.6092 8.20829 31.6092 11.8451V20.2538C31.6092 20.988 31.0036 21.6221 30.2306 21.6221C29.4575 21.6221 28.8854 20.988 28.8854 20.2538V12.6461C28.8854 9.87666 27.3721 8.27509 24.85 8.27509C22.3279 8.27509 20.4445 10.1103 20.4445 12.8133V20.2542C20.4445 20.9883 19.8392 21.6225 19.0993 21.6225C18.3594 21.6225 17.7207 20.9883 17.7207 20.2542Z" fill="white"/>
<path d="M34.5 13.8143C34.5 9.81017 37.2238 5.73926 41.9656 5.73926C46.3373 5.73926 48.9941 9.10958 49.1619 12.5464C49.1619 13.581 48.9264 14.2148 47.8167 14.2148H37.2238C37.3919 17.2846 39.4769 19.0863 42.7725 19.0863C44.1176 19.0863 45.2946 18.8526 46.4381 18.3854C47.2453 18.0853 48.086 18.619 48.086 19.4532C48.086 19.8869 47.8506 20.2874 47.4808 20.4878C46.1022 21.2552 44.5215 21.6224 42.7728 21.6224C38.0983 21.6224 34.5003 18.2521 34.5003 13.8143H34.5ZM46.4381 12.0455C46.27 9.90986 44.3531 8.27506 41.9321 8.27506C39.5111 8.27506 37.6277 9.87697 37.3584 12.0455H46.4381Z" fill="white"/>
<path d="M52.3779 20.1541V1.83519C52.3779 0.967432 52.8824 0.466919 53.7566 0.466919H60.7515C64.9551 0.466919 67.6454 2.83622 67.6454 6.57312C67.6454 10.31 64.9551 12.7129 60.7515 12.7129H55.3372V20.1541C55.3372 20.9547 54.6646 21.6224 53.8577 21.6224C53.0508 21.6224 52.3779 20.9551 52.3779 20.1541ZM55.3372 10.0771H60.785C63.341 10.0771 64.6861 8.84238 64.6861 6.57345C64.6861 4.30453 63.341 3.10309 60.8189 3.10309L55.3372 3.13666V10.0771Z" fill="white"/>
<path d="M70.334 20.2542V1.36793C70.334 0.63378 70.9396 0 71.7126 0C72.4857 0 73.0577 0.634119 73.0577 1.36793V20.2538C73.0577 20.988 72.4525 21.6221 71.7126 21.6221C70.9727 21.6221 70.334 20.988 70.334 20.2538V20.2542Z" fill="white"/>
<path d="M76.0511 16.5837C76.0511 13.7474 78.7079 11.6786 82.3394 11.6786C84.2563 11.6786 85.8703 12.2459 86.8792 13.2802V11.545C86.8792 9.47613 85.3998 8.27503 82.7091 8.27503C81.5321 8.27503 80.456 8.5419 79.4136 8.94238C78.7076 9.20925 77.7322 8.70874 77.7322 7.80809C77.7322 7.30723 78.0346 6.9071 78.5056 6.70669C79.7834 6.17294 81.4313 5.73889 83.2136 5.73889C87.0808 5.73889 89.603 7.90778 89.603 11.3446V20.2538C89.603 21.0212 88.9977 21.6221 88.2578 21.6221C87.5179 21.6221 86.8789 21.088 86.8789 20.1202V19.9533C86.1055 20.7875 84.3232 21.6549 82.339 21.6549C78.6399 21.6549 76.0508 19.5525 76.0508 16.583L76.0511 16.5837ZM86.9465 16.5837C86.9465 14.7817 84.7272 13.9475 82.7095 13.9475C80.6918 13.9475 78.7752 14.7817 78.7752 16.5837C78.7752 18.3857 80.6918 19.2199 82.7095 19.2199C84.7272 19.2199 86.9465 18.4192 86.9465 16.5837Z" fill="white"/>
<path d="M99.3877 21.3884C97.7398 21.7553 96.4285 21.6553 95.5543 21.0548C94.5455 20.2874 94.0745 19.0191 94.0745 17.1507V8.74199H93.1665C92.4601 8.74199 91.8887 8.17468 91.8887 7.4741C91.8887 6.77351 92.4604 6.2062 93.1665 6.2062H94.0745V3.70363C94.0745 2.96947 94.6798 2.33569 95.4532 2.33569C96.2265 2.33569 96.7983 2.96981 96.7983 3.70363V6.2062H98.1769C98.8833 6.2062 99.4547 6.77351 99.4547 7.4741C99.4547 8.17468 98.883 8.74199 98.1769 8.74199H96.7983V16.9835C96.7983 17.8513 96.9664 18.4518 97.3027 18.7187C97.6725 19.0524 98.2442 19.0856 98.9168 18.9523C99.6567 18.8187 100.363 19.4196 100.363 20.187C100.363 20.7543 99.926 21.2548 99.3877 21.3881V21.3884Z" fill="white"/>
<path d="M103.859 20.2542V8.7424H102.783C102.077 8.7424 101.505 8.17508 101.505 7.4745C101.505 6.77391 102.077 6.2066 102.783 6.2066H103.859V4.80509C103.859 3.06991 104.262 1.83558 105.036 1.03463C105.742 0.333703 106.717 0.000366211 107.962 0.000366211C108.937 0.000366211 109.542 0.300471 109.542 1.3015C109.542 2.06888 108.87 2.5694 108.029 2.5694C107.558 2.5694 107.222 2.66943 106.986 2.93631C106.717 3.23641 106.583 3.80373 106.583 4.67149V6.2066H108.264C108.97 6.2066 109.542 6.77391 109.542 7.4745C109.542 8.17508 108.97 8.7424 108.264 8.7424H106.583V20.2542C106.583 20.9884 105.977 21.6225 105.238 21.6225C104.498 21.6225 103.859 20.9884 103.859 20.2542H103.859Z" fill="white"/>
<path d="M135.54 20.2541V7.10716C135.54 6.37301 136.146 5.73889 136.885 5.73889C137.625 5.73889 138.264 6.37301 138.264 7.10716V7.80809C138.97 6.94033 140.08 6.33978 141.358 6.13971C142.098 6.03967 142.77 6.60699 142.77 7.34081C142.77 8.00816 142.165 8.44187 141.492 8.5419C140.046 8.77554 138.264 9.40932 138.264 11.0445V20.2538C138.264 20.9879 137.659 21.6221 136.919 21.6221C136.179 21.6221 135.54 20.9879 135.54 20.2538L135.54 20.2541Z" fill="white"/>
<path d="M145.325 20.2541V7.10716C145.325 6.37301 145.931 5.73889 146.67 5.73889C147.41 5.73889 148.049 6.37301 148.049 7.10716V8.27503C149.024 6.94033 150.369 5.73889 152.757 5.73889C155.144 5.73889 156.961 7.00679 157.835 8.57513C159.113 6.67345 160.862 5.73889 163.114 5.73889C166.679 5.73889 168.999 8.14142 168.999 11.8451V20.2538C168.999 20.9879 168.394 21.6221 167.621 21.6221C166.847 21.6221 166.276 20.9879 166.276 20.2538V12.6793C166.276 9.87661 164.931 8.27469 162.543 8.27469C160.156 8.27469 158.575 10.1099 158.575 12.7793V20.2538C158.575 20.9879 157.969 21.6221 157.196 21.6221C156.423 21.6221 155.851 20.9879 155.851 20.2538V12.6128C155.851 9.91018 154.405 8.27503 152.085 8.27503C149.764 8.27503 148.049 10.2439 148.049 12.8797V20.2538C148.049 20.9879 147.444 21.6221 146.704 21.6221C145.964 21.6221 145.326 20.9879 145.326 20.2538L145.325 20.2541Z" fill="white"/>
<path d="M9.42285 41.9671C9.42285 41.079 9.83911 40.6365 10.672 40.6365C11.5048 40.6365 11.9064 41.0787 11.9064 41.9671C11.9064 42.8556 11.4956 43.2849 10.672 43.2849C9.84833 43.2849 9.42285 42.8461 9.42285 41.9671Z" fill="white"/>
<path d="M5.77441 41.9671C5.77441 41.079 6.1852 40.6365 7.01087 40.6365C7.83655 40.6365 8.25827 41.0787 8.25827 41.9671C8.25827 42.8556 7.84202 43.2849 7.01087 43.2849C6.17973 43.2849 5.77441 42.8461 5.77441 41.9671Z" fill="white"/>
<path d="M62.0049 42.6281V41.1357H63.2523V42.408C63.2523 42.8939 63.3237 43.2324 63.4631 43.4253C63.6026 43.6183 63.8521 43.7146 64.2095 43.7146C64.9084 43.7146 65.2587 43.3524 65.2587 42.6281V40.5331H66.3776V42.153C66.3776 42.8773 66.6804 43.2415 67.2873 43.2415C67.7149 43.2415 68.0047 43.1395 68.1568 42.934C68.3071 42.7302 68.3844 42.3972 68.3844 41.9329V40.1855H69.6318V42.153C69.6318 43.68 68.9476 44.4443 67.5792 44.4443C66.8492 44.4443 66.2877 44.2076 65.9009 43.738C65.488 44.5243 64.8425 44.9174 63.9638 44.9174C62.6576 44.9174 62.0049 44.1547 62.0049 42.6278V42.6281Z" fill="white"/>
<path d="M117.58 41.9671C117.58 41.079 117.993 40.6365 118.817 40.6365C119.64 40.6365 120.053 41.0787 120.053 41.9671C120.053 42.8556 119.64 43.2849 118.817 43.2849C117.993 43.2849 117.58 42.8461 117.58 41.9671Z" fill="white"/>
<path d="M159.912 55.11H152.937C153.521 54.7095 153.99 54.1219 154.342 53.3463C154.696 52.5712 154.874 51.7702 154.874 50.9458C154.874 49.1567 154.37 47.7552 153.363 46.7451C152.357 45.7349 151.044 45.2289 149.428 45.2289C147.812 45.2289 146.403 45.8241 145.371 47.0109C144.336 48.1995 143.819 49.7227 143.819 51.581C143.819 53.108 144.083 54.2857 144.613 55.11H122.255C121.541 55.11 120.967 54.9062 120.536 54.4966C120.105 54.089 119.889 53.5373 119.889 52.8421V45.4728H117.766V55.11H75.5244C74.8091 55.11 74.2349 54.9116 73.8037 54.5149C73.3727 54.1181 73.156 53.5993 73.156 52.9588V51.2459C73.156 47.2344 71.3328 45.2289 67.688 45.2289C64.8118 45.2289 62.6068 47.0072 61.0754 50.5637V46.1791H59.0468V55.11H13.295V45.4728H9.69261C7.72445 45.4728 6.14317 46.017 4.94532 47.1035C3.74953 48.192 3.14941 49.6769 3.14941 51.5589C3.14941 53.248 3.63539 54.5712 4.60767 55.5268C5.57996 56.484 6.90801 56.9608 8.59558 56.9608H61.0765V55.1334C61.7148 56.3528 62.5272 56.9608 63.5142 56.9608H73.1571V55.6068C73.601 56.5095 74.4906 56.9608 75.8279 56.9608H119.889V55.6068C120.348 56.5095 121.241 56.9608 122.571 56.9608H162.034V38.9586H159.912V55.11ZM11.266 55.11H8.53646C6.36086 55.11 5.27136 53.9177 5.27136 51.5355C5.27136 50.2161 5.66198 49.1822 6.44357 48.4341C7.22481 47.6861 8.33107 47.311 9.76198 47.311H11.266V55.11ZM71.1284 55.11H63.4335C62.1038 55.11 61.3331 54.4311 61.1243 53.0734C62.7715 49.0947 64.8166 47.1035 67.2581 47.1035C69.839 47.1035 71.1284 48.5196 71.1284 51.3497V55.11ZM151.744 53.9944C151.087 54.7387 150.155 55.11 148.95 55.11H146.782C146.223 54.3474 145.942 53.1697 145.942 51.581C145.942 50.2015 146.272 49.1022 146.935 48.2829C147.595 47.4656 148.418 47.0581 149.405 47.0581C150.392 47.0581 151.203 47.3965 151.814 48.0754C152.424 48.7542 152.729 49.6878 152.729 50.8746C152.729 52.2107 152.401 53.2497 151.744 53.9944H151.744Z" fill="white"/>
<path d="M168.214 38.9586H166.092V56.9608H168.214V38.9586Z" fill="white"/>
<path d="M143.511 31.7728V26.8803C143.511 26.6707 143.687 26.4957 143.898 26.4957C144.031 26.4957 144.145 26.5656 144.215 26.6619L146.064 29.3265L147.913 26.6619C147.984 26.5659 148.098 26.4957 148.23 26.4957C148.442 26.4957 148.618 26.6704 148.618 26.8803V31.7728C148.618 31.9824 148.442 32.1574 148.23 32.1574C148.019 32.1574 147.843 31.9827 147.843 31.7728V28.0251L146.32 30.218C146.17 30.4364 145.959 30.4364 145.809 30.218L144.286 28.0251V31.7728C144.286 31.9824 144.11 32.1574 143.898 32.1574C143.687 32.1574 143.511 31.9827 143.511 31.7728Z" fill="white"/>
<path d="M150.66 30.838C150.66 30.0953 151.356 29.5538 152.307 29.5538C152.808 29.5538 153.231 29.7023 153.495 29.9732V29.5188C153.495 28.9773 153.108 28.6626 152.403 28.6626C152.095 28.6626 151.814 28.7325 151.541 28.8373C151.356 28.9071 151.1 28.7762 151.1 28.5402C151.1 28.409 151.18 28.3042 151.303 28.252C151.638 28.1123 152.069 27.9987 152.536 27.9987C153.548 27.9987 154.209 28.5667 154.209 29.4663V31.799C154.209 32.0001 154.05 32.1571 153.856 32.1571C153.662 32.1571 153.495 32.0173 153.495 31.764V31.7203C153.293 31.9387 152.826 32.1659 152.307 32.1659C151.338 32.1659 150.66 31.6155 150.66 30.838ZM153.513 30.838C153.513 30.3663 152.932 30.1479 152.403 30.1479C151.875 30.1479 151.373 30.3663 151.373 30.838C151.373 31.3096 151.875 31.528 152.403 31.528C152.932 31.528 153.513 31.3185 153.513 30.838Z" fill="white"/>
<path d="M156.393 31.799V28.3567C156.393 28.1645 156.551 27.9987 156.745 27.9987C156.939 27.9987 157.106 28.1648 157.106 28.3567V28.5402C157.291 28.313 157.581 28.1557 157.916 28.1034C158.11 28.0773 158.286 28.2259 158.286 28.4181C158.286 28.5928 158.127 28.7064 157.951 28.7328C157.572 28.7939 157.106 28.96 157.106 29.388V31.7993C157.106 31.9916 156.947 32.1574 156.753 32.1574C156.56 32.1574 156.393 31.9912 156.393 31.7993V31.799Z" fill="white"/>
<path d="M162.493 28.1034C162.555 28.0424 162.634 27.9986 162.731 27.9986C162.907 27.9986 163.057 28.1472 163.057 28.3218C163.057 28.4093 163.022 28.4879 162.969 28.5402L161.551 29.8942L163.048 31.6151C163.101 31.6677 163.136 31.7464 163.136 31.8335C163.136 32.0082 162.987 32.1567 162.811 32.1567C162.714 32.1567 162.626 32.1129 162.573 32.0519L160.856 30.0861V31.7986C160.856 31.9909 160.697 32.1567 160.503 32.1567C160.31 32.1567 160.143 31.9905 160.143 31.7986V26.8538C160.143 26.6615 160.301 26.4957 160.503 26.4957C160.706 26.4957 160.856 26.6619 160.856 26.8538V29.6931L162.493 28.1031V28.1034Z" fill="white"/>
<path d="M164.854 30.838C164.854 30.0953 165.549 29.5538 166.5 29.5538C167.002 29.5538 167.425 29.7023 167.689 29.9732V29.5188C167.689 28.9773 167.301 28.6626 166.597 28.6626C166.289 28.6626 166.007 28.7325 165.734 28.8373C165.549 28.9071 165.294 28.7762 165.294 28.5402C165.294 28.409 165.373 28.3042 165.496 28.252C165.831 28.1123 166.262 27.9987 166.729 27.9987C167.742 27.9987 168.402 28.5667 168.402 29.4663V31.799C168.402 32.0001 168.243 32.1571 168.05 32.1571C167.856 32.1571 167.689 32.0173 167.689 31.764V31.7203C167.486 31.9387 167.02 32.1659 166.5 32.1659C165.532 32.1659 164.854 31.6155 164.854 30.838ZM167.706 30.838C167.706 30.3663 167.125 30.1479 166.597 30.1479C166.068 30.1479 165.567 30.3663 165.567 30.838C165.567 31.3096 166.068 31.528 166.597 31.528C167.125 31.528 167.706 31.3185 167.706 30.838Z" fill="white"/>
<path d="M4.55273 68.0692V61.8053H5.23077V68.0692H4.55273ZM5.23077 68.0692V67.449H6.3049V68.0692H5.23077ZM6.3049 68.0692V67.449C6.3401 67.449 6.36949 67.4564 6.39307 67.4707C6.41631 67.4852 6.43408 67.5056 6.44604 67.5317C6.45766 67.5578 6.46655 67.59 6.47236 67.6277C6.47817 67.6656 6.48124 67.7077 6.48124 67.7545C6.48124 67.8013 6.47817 67.845 6.47236 67.8857C6.46655 67.9264 6.45766 67.96 6.44604 67.9861C6.43408 68.0122 6.41665 68.0329 6.39307 68.0471C6.36949 68.0617 6.3401 68.0688 6.3049 68.0688V68.0692Z" fill="white"/>
<path d="M6.30525 68.0692C6.27005 68.0692 6.24066 68.0621 6.21708 68.0475C6.19384 68.0329 6.17607 68.0126 6.16411 67.9864C6.15249 67.9603 6.1436 67.9268 6.13779 67.8861C6.13198 67.8454 6.12891 67.8016 6.12891 67.7548C6.12891 67.6907 6.13335 67.6368 6.14223 67.5931C6.15112 67.5493 6.16855 67.5144 6.19521 67.4883C6.22152 67.4622 6.25843 67.449 6.30525 67.449V68.0692ZM6.30525 68.0692V67.449H10.7077L10.4613 67.6673V66.1122C10.4613 65.7975 10.4186 65.5371 10.3335 65.3303C10.2484 65.1237 10.1223 64.9691 9.95482 64.8674C9.78771 64.7657 9.57753 64.7145 9.32532 64.7145H7.40603L6.90434 63.963L7.283 63.238C7.3534 63.1098 7.42688 62.9789 7.50309 62.845C7.5793 62.711 7.67329 62.5568 7.7847 62.3821C7.89611 62.2075 8.03691 61.9949 8.20744 61.7443L8.77988 62.0851C8.60969 62.3414 8.47162 62.554 8.36602 62.7229C8.26042 62.8918 8.17088 63.0376 8.0974 63.1597C8.02392 63.2821 7.95489 63.4042 7.89064 63.5266L7.45046 64.3652L7.27446 64.0942H9.326C9.69578 64.0942 9.99959 64.157 10.2371 64.2821C10.475 64.4076 10.6599 64.572 10.7918 64.7758C10.9237 64.9796 11.0163 65.1994 11.0693 65.4354C11.1223 65.6714 11.1486 65.8969 11.1486 66.1126V68.0695H6.30593L6.30525 68.0692Z" fill="white"/>
<path d="M12.3271 70.0001C12.2509 70.0001 12.1703 69.9957 12.0848 69.9868C11.9997 69.978 11.916 69.9706 11.834 69.9651L11.9133 69.3449C11.9956 69.3507 12.0718 69.3582 12.1422 69.3666C12.2126 69.3751 12.2742 69.3799 12.3271 69.3799C12.6029 69.3799 12.8261 69.2764 12.9963 69.0696C13.1665 68.8627 13.2516 68.5758 13.2516 68.2089V63.7009H13.9385V68.2089C13.9385 68.564 13.8695 68.8773 13.7317 69.1483C13.5937 69.4192 13.4043 69.6288 13.1637 69.7773C12.9231 69.9258 12.6443 70.0001 12.3271 70.0001Z" fill="white"/>
<path d="M15.8486 68.0692V61.8053H16.5267V68.0692H15.8486ZM16.5267 68.0692V67.449H17.6008V68.0692H16.5267ZM17.6008 68.0692V67.449C17.636 67.449 17.6654 67.4564 17.689 67.4707C17.7122 67.4852 17.73 67.5056 17.7419 67.5317C17.7536 67.5578 17.7624 67.59 17.7683 67.6277C17.7741 67.6656 17.7771 67.7077 17.7771 67.7545C17.7771 67.8013 17.7741 67.845 17.7683 67.8857C17.7624 67.9264 17.7536 67.96 17.7419 67.9861C17.73 68.0122 17.7125 68.0329 17.689 68.0471C17.6654 68.0617 17.636 68.0688 17.6008 68.0688V68.0692Z" fill="white"/>
<path d="M17.6012 68.0692C17.5659 68.0692 17.5366 68.0621 17.513 68.0475C17.4897 68.0329 17.472 68.0126 17.46 67.9865C17.4484 67.9604 17.4395 67.9268 17.4337 67.8861C17.4279 67.8454 17.4248 67.8017 17.4248 67.7549C17.4248 67.6908 17.4292 67.6369 17.4381 67.5931C17.447 67.5494 17.4644 67.5145 17.4911 67.4883C17.5178 67.4622 17.5543 67.449 17.6012 67.449V68.0692ZM17.6012 68.0692V67.449H22.4171L21.9065 67.8071V65.9288C21.9065 65.5212 21.8594 65.2008 21.7657 64.9678C21.6718 64.7348 21.5118 64.569 21.2859 64.47C21.06 64.371 20.7531 64.3215 20.3659 64.3215C20.1195 64.3215 19.8741 64.3391 19.6308 64.374C19.3871 64.409 19.1978 64.4558 19.0628 64.5138L19.4767 64.0943C19.4415 64.234 19.4063 64.4103 19.3711 64.6229C19.3359 64.8356 19.3065 65.0641 19.2829 65.3086C19.2593 65.5531 19.2477 65.7979 19.2477 66.0424C19.2477 66.2869 19.2593 66.5375 19.2829 66.7762C19.3062 67.015 19.3328 67.2218 19.3622 67.3965C19.3916 67.5711 19.4152 67.6935 19.4326 67.7634L18.7812 67.9468C18.7576 67.8712 18.7296 67.7403 18.6975 67.5538C18.665 67.3676 18.636 67.1431 18.6093 66.881C18.5827 66.6189 18.5697 66.3395 18.5697 66.0424C18.5697 65.7454 18.583 65.4788 18.6093 65.2082C18.6356 64.9373 18.6678 64.6914 18.706 64.47C18.7443 64.2486 18.7809 64.0712 18.8161 63.9369C18.9453 63.8844 19.1507 63.8322 19.4323 63.7796C19.7139 63.727 20.0252 63.7009 20.3656 63.7009C20.8587 63.7009 21.2709 63.7738 21.6027 63.9193C21.9342 64.0651 22.1823 64.2994 22.3467 64.6226C22.5111 64.9458 22.5931 65.3812 22.5931 65.9288V68.0692H17.6008H17.6012Z" fill="white"/>
</g>
<defs>
<clipPath id="clip0_580_4792">
<rect width="169" height="70" fill="white"/>
</clipPath>
</defs>
</svg>
