<svg width="36" height="37" viewBox="0 0 36 37" fill="none" xmlns="http://www.w3.org/2000/svg">
<rect x="0.5" y="0.875" width="35" height="35" rx="17.5" stroke="white"/>
<path d="M9 11.7951C9 11.2178 9.20271 10.7416 9.60811 10.3665C10.0135 9.9913 10.5405 9.80371 11.1892 9.80371C11.8263 9.80371 12.3417 9.9884 12.7355 10.3578C13.1409 10.7388 13.3436 11.2352 13.3436 11.847C13.3436 12.4011 13.1467 12.8629 12.7529 13.2323C12.3475 13.6132 11.8147 13.8037 11.1544 13.8037H11.1371C10.5 13.8037 9.98456 13.6132 9.59073 13.2323C9.19691 12.8513 9 12.3722 9 11.7951ZM9.22587 26.9466V15.3795H13.083V26.9466H9.22587ZM15.2201 26.9466H19.0772V20.4877C19.0772 20.0836 19.1236 19.7719 19.2162 19.5526C19.3784 19.1601 19.6245 18.8282 19.9546 18.557C20.2847 18.2857 20.6988 18.15 21.1969 18.15C22.4942 18.15 23.1429 19.0216 23.1429 20.7647V26.9466H27V20.3145C27 18.606 26.5946 17.3102 25.7838 16.4271C24.973 15.544 23.9015 15.1024 22.5695 15.1024C21.0753 15.1024 19.9112 15.7431 19.0772 17.0245V17.0591H19.0598L19.0772 17.0245V15.3795H15.2201C15.2432 15.7489 15.2548 16.8975 15.2548 18.8254C15.2548 20.7532 15.2432 23.4603 15.2201 26.9466Z" fill="#EBEDF0"/>
</svg>
