<svg width="74" height="74" viewBox="0 0 74 74" fill="none" xmlns="http://www.w3.org/2000/svg">
<g clip-path="url(#clip0_1_2777)">
<path d="M55.5 18.5V18.5308" stroke="white" stroke-width="4" stroke-linecap="round" stroke-linejoin="round"/>
<path d="M55.5001 40.0833L44.7084 24.6666C43.6695 22.789 43.1386 20.6727 43.1679 18.5271C43.1973 16.3814 43.7859 14.2805 44.8758 12.432C45.9656 10.5834 47.5189 9.05123 49.3822 7.98677C51.2454 6.92232 53.3542 6.36243 55.5001 6.36243C57.646 6.36243 59.7547 6.92232 61.618 7.98677C63.4812 9.05123 65.0345 10.5834 66.1244 12.432C67.2142 14.2805 67.8029 16.3814 67.8323 18.5271C67.8616 20.6727 67.3306 22.789 66.2917 24.6666L55.5001 40.0833Z" stroke="white" stroke-width="4" stroke-linecap="round" stroke-linejoin="round"/>
<path d="M32.375 14.6459L27.75 12.3334L9.25 21.5834V61.6667L27.75 52.4167L46.25 61.6667L64.75 52.4167V46.25" stroke="white" stroke-width="4" stroke-linecap="round" stroke-linejoin="round"/>
<path d="M27.75 12.3334V52.4167" stroke="white" stroke-width="4" stroke-linecap="round" stroke-linejoin="round"/>
<path d="M46.25 46.25V61.6667" stroke="white" stroke-width="4" stroke-linecap="round" stroke-linejoin="round"/>
</g>
<defs>
<clipPath id="clip0_1_2777">
<rect width="74" height="74" fill="white"/>
</clipPath>
</defs>
</svg>
