<svg width="36" height="37" viewBox="0 0 36 37" fill="none" xmlns="http://www.w3.org/2000/svg">
<rect x="0.5" y="0.875" width="35" height="35" rx="17.5" stroke="white"/>
<path d="M21.027 11.0765V11.0732H21.871L22.1794 11.1348C22.385 11.1748 22.5717 11.2272 22.7394 11.2921C22.9071 11.3569 23.0694 11.4325 23.2263 11.519C23.3832 11.6054 23.5255 11.6935 23.6532 11.7832C23.7798 11.8718 23.8934 11.9658 23.994 12.0652C24.0936 12.1657 24.2488 12.1916 24.4598 12.143C24.6708 12.0944 24.8981 12.0268 25.1415 11.9404C25.385 11.854 25.6258 11.7567 25.8638 11.6486C26.1019 11.5406 26.2469 11.472 26.2988 11.4428C26.3497 11.4125 26.3767 11.3963 26.38 11.3942L26.3832 11.3893L26.3994 11.3812L26.4157 11.3731L26.4319 11.365L26.4481 11.3569L26.4514 11.352L26.4562 11.3488L26.4611 11.3455L26.4644 11.3407L26.4806 11.3358L26.4968 11.3326L26.4936 11.3569L26.4887 11.3812L26.4806 11.4055L26.4725 11.4298L26.4644 11.446L26.4562 11.4622L26.4481 11.4866C26.4427 11.5028 26.4373 11.5244 26.4319 11.5514C26.4265 11.5784 26.3751 11.6865 26.2777 11.8756C26.1803 12.0647 26.0586 12.2565 25.9125 12.451C25.7664 12.6455 25.6355 12.7924 25.5197 12.8918C25.4029 12.9923 25.3255 13.0625 25.2876 13.1025C25.2498 13.1436 25.2038 13.1814 25.1497 13.216L25.0685 13.2695L25.0523 13.2776L25.036 13.2857L25.0328 13.2906L25.0279 13.2938L25.0231 13.297L25.0198 13.3019L25.0036 13.31L24.9873 13.3181L24.9841 13.323L24.9792 13.3262L24.9744 13.3295L24.9711 13.3343L24.9679 13.3392L24.963 13.3424L24.9581 13.3457L24.9549 13.3505H25.036L25.4905 13.2533C25.7935 13.1884 26.0829 13.1101 26.3589 13.0183L26.7971 12.8724L26.8458 12.8562L26.8701 12.8481L26.8864 12.84L26.9026 12.8319L26.9188 12.8238L26.935 12.8156L26.9675 12.8108L27 12.8075V12.84L26.9919 12.8432L26.9837 12.8481L26.9805 12.8529L26.9756 12.8562L26.9708 12.8594L26.9675 12.8643L26.9643 12.8691L26.9594 12.8724L26.9545 12.8756L26.9513 12.8805L26.948 12.8853L26.9432 12.8886L26.935 12.9048L26.9269 12.921L26.9221 12.9242C26.9199 12.9275 26.8512 13.0193 26.7159 13.1998C26.5807 13.3813 26.5076 13.4732 26.4968 13.4753C26.486 13.4786 26.4708 13.4948 26.4514 13.524C26.433 13.5542 26.3183 13.6747 26.1073 13.8854C25.8963 14.0961 25.6896 14.2836 25.4873 14.4478C25.2838 14.6132 25.181 14.8163 25.1789 15.0573C25.1756 15.2972 25.1632 15.5684 25.1415 15.8709C25.1199 16.1735 25.0793 16.5004 25.0198 16.8515C24.9603 17.2027 24.8683 17.5998 24.7439 18.0429C24.6195 18.4859 24.468 18.9181 24.2894 19.3395C24.1109 19.7609 23.9242 20.1391 23.7295 20.4741C23.5347 20.8091 23.3561 21.0927 23.1938 21.3251C23.0315 21.5574 22.8665 21.7762 22.6988 21.9815C22.5311 22.1868 22.319 22.4181 22.0626 22.6752C21.805 22.9313 21.6644 23.0718 21.6406 23.0966C21.6157 23.1204 21.5096 23.209 21.3224 23.3625C21.1363 23.517 20.9361 23.6715 20.7219 23.826C20.5087 23.9795 20.3129 24.1075 20.1343 24.2102C19.9558 24.3128 19.7405 24.43 19.4883 24.5619C19.2373 24.6948 18.9657 24.818 18.6735 24.9314C18.3814 25.0449 18.073 25.1502 17.7484 25.2475C17.4238 25.3447 17.11 25.4204 16.807 25.4744C16.504 25.5284 16.1605 25.5744 15.7763 25.6122L15.2001 25.6689V25.677H14.1451V25.6689L14.0072 25.6608C13.9152 25.6554 13.8395 25.65 13.78 25.6446C13.7204 25.6392 13.4959 25.6095 13.1064 25.5555C12.7168 25.5014 12.4112 25.4474 12.1893 25.3934C11.9675 25.3393 11.6375 25.2367 11.1992 25.0854C10.761 24.9341 10.3861 24.7812 10.0745 24.6267C9.76391 24.4733 9.56914 24.376 9.49014 24.335C9.41223 24.295 9.32459 24.2453 9.2272 24.1858L9.08112 24.0967L9.07789 24.0918L9.07301 24.0886L9.06814 24.0854L9.06489 24.0805L9.04866 24.0724L9.03243 24.0643L9.0292 24.0594L9.02432 24.0562L9.01945 24.0529L9.0162 24.0481L9.01297 24.0432L9.00808 24.04H8.99997V24.0076L9.0162 24.0108L9.03243 24.0157L9.10547 24.0238C9.15416 24.0292 9.28672 24.0373 9.50313 24.0481C9.71955 24.0589 9.94947 24.0589 10.1929 24.0481C10.4364 24.0373 10.6853 24.0129 10.9396 23.9751C11.1938 23.9373 11.4941 23.8725 11.8404 23.7806C12.1866 23.6888 12.5048 23.5796 12.7948 23.4532C13.0837 23.3257 13.2892 23.2306 13.4115 23.168C13.5327 23.1064 13.7177 22.9918 13.9666 22.8243L14.3399 22.5731L14.3432 22.5682L14.348 22.565L14.3529 22.5618L14.3561 22.5569L14.3594 22.552L14.3643 22.5488L14.3691 22.5456L14.3724 22.5407L14.3886 22.5358L14.4048 22.5326L14.4081 22.5164L14.413 22.5002L14.4178 22.4969L14.4211 22.4921L14.2912 22.484C14.2047 22.4786 14.1208 22.4732 14.0396 22.4678C13.9585 22.4624 13.8314 22.438 13.6582 22.3948C13.4851 22.3516 13.2984 22.2868 13.0983 22.2003C12.8981 22.1139 12.7033 22.0112 12.5139 21.8924C12.3246 21.7735 12.1877 21.6746 12.1033 21.5957C12.02 21.5179 11.9118 21.4077 11.7787 21.2651C11.6467 21.1214 11.532 20.9739 11.4346 20.8226C11.3372 20.6713 11.2442 20.4968 11.1554 20.2991L11.0207 20.0041L11.0126 19.9798L11.0045 19.9555L10.9996 19.9392L10.9964 19.923L11.0207 19.9263L11.0451 19.9311L11.2236 19.9555C11.3426 19.9717 11.5293 19.9771 11.7836 19.9717C12.0378 19.9663 12.2137 19.9555 12.3111 19.9392C12.4084 19.923 12.468 19.9122 12.4896 19.9068L12.5221 19.8987L12.5626 19.8906L12.6032 19.8825L12.6065 19.8777L12.6113 19.8744L12.6162 19.8712L12.6194 19.8663L12.587 19.8582L12.5545 19.8501L12.5221 19.842L12.4896 19.8339L12.4571 19.8258C12.4355 19.8204 12.3976 19.8096 12.3435 19.7934C12.2894 19.7772 12.1433 19.7177 11.9053 19.6151C11.6672 19.5124 11.4779 19.4125 11.3372 19.3152C11.1962 19.2177 11.0617 19.111 10.9347 18.9959C10.8081 18.8792 10.6691 18.729 10.5176 18.5453C10.3661 18.3616 10.2308 18.1482 10.1118 17.9051C9.99276 17.662 9.90349 17.4296 9.84397 17.2081C9.78469 16.9879 9.74558 16.7628 9.72713 16.5355L9.6979 16.1951L9.71413 16.1983L9.73036 16.2032L9.74659 16.2113L9.76282 16.2194L9.77905 16.2275L9.79528 16.2356L10.0469 16.3491C10.2146 16.4247 10.4229 16.4896 10.6717 16.5436C10.9206 16.5976 11.0694 16.6273 11.1181 16.6327L11.1911 16.6408H11.3372L11.334 16.636L11.3291 16.6327L11.3242 16.6295L11.321 16.6246L11.3177 16.6198L11.3129 16.6165L11.308 16.6133L11.3047 16.6084L11.2885 16.6003L11.2723 16.5922L11.2691 16.5873L11.2642 16.5841L11.2593 16.5809L11.2561 16.576L11.2398 16.5679L11.2236 16.5598L11.2204 16.5549C11.2171 16.5528 11.1706 16.5182 11.0808 16.4512C10.992 16.3831 10.899 16.2951 10.8016 16.187C10.7042 16.0789 10.6068 15.9655 10.5094 15.8466C10.4119 15.7275 10.325 15.6 10.2497 15.4657C10.174 15.3307 10.0939 15.1588 10.0095 14.9503C9.92621 14.7428 9.86291 14.5337 9.81963 14.323C9.77636 14.1123 9.75201 13.9043 9.74659 13.699C9.74118 13.4937 9.74659 13.3181 9.76282 13.1722C9.77905 13.0264 9.81151 12.8616 9.8602 12.6779C9.9089 12.4942 9.97924 12.2997 10.0712 12.0944L10.2092 11.7864L10.2173 11.7621L10.2254 11.7378L10.2303 11.7345L10.2335 11.7297L10.2368 11.7248L10.2416 11.7216L10.2465 11.7248L10.2497 11.7297L10.253 11.7345L10.2579 11.7378L10.2627 11.741L10.266 11.7459L10.2692 11.7508L10.2741 11.754L10.2822 11.7702L10.2903 11.7864L10.2952 11.7897L10.2984 11.7945L10.5176 12.0376C10.6636 12.1997 10.8368 12.3807 11.0369 12.5806C11.2371 12.7805 11.348 12.8843 11.3697 12.8918C11.3913 12.9005 11.4184 12.9253 11.4508 12.9664C11.4833 13.0064 11.5915 13.102 11.7754 13.2533C11.9594 13.4045 12.2002 13.5801 12.4977 13.78C12.7953 13.9799 13.1253 14.1772 13.4878 14.3717C13.8503 14.5662 14.2398 14.7417 14.6564 14.8984C15.073 15.0551 15.3652 15.1578 15.5329 15.2064C15.7006 15.255 15.9873 15.3171 16.3931 15.3928C16.7989 15.4684 17.1046 15.5171 17.3102 15.5387C17.5158 15.5603 17.6564 15.5727 17.7322 15.5759L17.8458 15.5792L17.8425 15.5549L17.8377 15.5306L17.8052 15.3279C17.7836 15.1929 17.7727 15.0038 17.7727 14.7607C17.7727 14.5175 17.7917 14.2933 17.8295 14.088C17.8674 13.8827 17.9242 13.6747 18 13.464C18.0757 13.2533 18.1498 13.0842 18.2223 12.9567C18.2959 12.8302 18.3922 12.686 18.5112 12.5239C18.6303 12.3618 18.7845 12.1943 18.9738 12.0214C19.1632 11.8485 19.3796 11.6946 19.6231 11.5595C19.8665 11.4244 20.0911 11.3218 20.2966 11.2515C20.5022 11.1813 20.6754 11.1354 20.816 11.1138C20.9567 11.0922 21.027 11.0797 21.027 11.0765Z" fill="#EBEDF0"/>
</svg>
