<svg width="36" height="37" viewBox="0 0 36 37" fill="none" xmlns="http://www.w3.org/2000/svg">
<rect x="0.5" y="0.875" width="35" height="35" rx="17.5" stroke="white"/>
<path d="M18.4388 25.3552L14.3766 25.2793C13.0613 25.2528 11.7428 25.3056 10.4533 25.0315C8.49177 24.622 8.35281 22.6141 8.20739 20.9299C8.00703 18.562 8.0846 16.1512 8.46271 13.8031C8.67616 12.4856 9.51619 11.6994 10.8153 11.6139C15.2006 11.3034 19.6151 11.3402 23.9908 11.4851C24.4529 11.4983 24.9182 11.5709 25.3739 11.6535C27.6232 12.0564 27.678 14.3318 27.8238 16.2473C27.9692 18.1825 27.9078 20.1277 27.6299 22.0497C27.4069 23.6411 26.9803 24.9757 25.1799 25.1045C22.9242 25.273 20.7202 25.4086 18.4581 25.3654C18.4582 25.3552 18.4452 25.3552 18.4388 25.3552ZM16.0506 21.3262C17.7505 20.3288 19.4179 19.348 21.1081 18.3573C19.4051 17.3599 17.7408 16.3791 16.0506 15.3883V21.3262Z" fill="#EBEDF0"/>
</svg>
