<svg width="46" height="56" viewBox="0 0 46 56" fill="none" xmlns="http://www.w3.org/2000/svg">
<path d="M18.5119 38.4268C17.951 38.567 17.5302 38.7073 17.1095 38.9878C16.5485 38.1463 16.1278 37.1646 15.5669 36.4634C14.5851 35.0609 13.4632 33.7987 12.4815 32.3963C10.9388 30.2926 9.67658 28.189 9.11561 25.5243C7.85341 18.9328 11.4997 12.4816 17.8107 9.95719C26.0851 6.59133 35.6218 12.2011 36.884 21.0365C37.4449 25.1036 36.1827 28.4694 33.9388 31.6951C32.9571 33.0975 31.6949 34.4999 30.7132 36.0426C30.012 37.0243 29.5913 38.0061 28.8901 38.9878C28.6096 39.4085 28.3291 39.8292 27.9083 39.9695C24.6827 41.2317 21.4571 42.3536 18.2315 43.4756C17.8108 43.6158 17.5303 43.4756 17.39 43.1951C17.2498 42.7744 17.2498 42.3536 17.6705 42.2134C17.951 42.0731 18.2315 41.9329 18.5119 41.9329C21.3168 40.9512 24.1217 39.9695 26.9266 38.8475C27.2071 38.7073 27.4876 38.4268 27.6278 38.1463C28.7498 36.0426 30.1522 34.3597 31.5547 32.3963C32.9571 30.5731 34.2193 28.8902 34.7803 26.6463C36.1827 22.1584 35.201 18.2316 32.1157 14.8657C28.6096 10.9389 24.1218 9.67671 19.073 11.2194C14.0242 12.7621 11.2193 16.2682 10.2375 21.4572C9.53632 25.1036 10.7985 28.189 12.9022 30.9938C14.1644 32.6768 15.4266 34.3597 16.6888 36.0426C17.5303 36.6036 17.951 37.4451 18.5119 38.4268Z" fill="#EB6B2A"/>
<path d="M17.8113 52.3111C17.6711 52.1708 17.3906 52.0306 17.3906 51.7501C17.3906 51.4696 17.5309 51.1891 17.6711 50.9086C17.6711 50.7684 17.9516 50.7684 18.0918 50.7684C21.1772 49.6464 24.4029 48.5245 27.4882 47.4025C28.1895 47.122 28.4699 47.2623 28.6102 47.683C28.7504 48.1037 28.4699 48.5245 27.9089 48.805C24.6833 49.9269 21.598 51.0489 18.3724 52.3111C18.2321 52.1708 18.0918 52.1708 17.8113 52.3111Z" fill="#EB6B2A"/>
<path d="M17.8113 47.683C17.6711 47.5428 17.3906 47.4025 17.3906 47.122C17.3906 46.8415 17.5309 46.5611 17.6711 46.2806C17.6711 46.1403 17.9516 46.1403 18.0918 46.1403C21.1772 45.0184 24.4029 43.8964 27.4882 42.7745C28.1895 42.494 28.4699 42.6342 28.6102 43.055C28.7504 43.4757 28.6102 43.8964 27.9089 44.1769C24.6833 45.2989 21.598 46.5611 18.3724 47.683C18.2321 47.683 18.0918 47.683 17.8113 47.683Z" fill="#EB6B2A"/>
<path d="M27.9089 51.6099C26.9272 54.9757 21.4577 56.9391 18.0918 55.116C21.3174 53.994 24.543 52.7318 27.9089 51.6099Z" fill="#EB6B2A"/>
<path d="M23.7013 2.5244C23.7013 3.08537 23.7013 3.64635 23.7013 4.20733C23.7013 4.62806 23.4208 4.90855 23 4.90855C22.5793 4.90855 22.2988 4.62806 22.2988 4.20733C22.2988 3.08537 22.2988 1.96342 22.2988 0.701222C22.2988 0.280489 22.5793 0 23 0C23.4208 0 23.7013 0.280489 23.7013 0.701222C23.7013 1.2622 23.7013 1.96342 23.7013 2.5244Z" fill="#EB6B2A"/>
<path d="M2.52438 22.1587C3.08536 22.1587 3.64635 22.1587 4.20733 22.1587C4.76831 22.1587 5.0488 22.4392 5.0488 22.8599C5.0488 23.2806 4.76831 23.5611 4.20733 23.5611C3.08537 23.5611 1.96343 23.5611 0.841474 23.5611C0.280497 23.5611 0 23.2806 0 22.8599C0 22.4392 0.280497 22.1587 0.841474 22.1587C1.40245 22.1587 1.9634 22.1587 2.52438 22.1587Z" fill="#EB6B2A"/>
<path d="M43.476 23.7013C42.915 23.7013 42.354 23.7013 41.793 23.7013C41.3723 23.7013 41.0918 23.4208 41.0918 23C41.0918 22.5793 41.3723 22.2988 41.793 22.2988C42.915 22.2988 44.1772 22.2988 45.2991 22.2988C45.7199 22.2988 46.0003 22.5793 46.0003 23C46.0003 23.4208 45.7199 23.7013 45.2991 23.7013C44.5979 23.7013 44.0369 23.7013 43.476 23.7013Z" fill="#EB6B2A"/>
<path d="M7.01224 6.17065C7.29273 6.3109 7.43296 6.45114 7.57321 6.59139C8.41467 7.43285 9.11591 8.13407 9.95738 8.97554C10.3781 9.39627 10.3781 9.67676 9.95738 10.0975C9.67689 10.378 9.25613 10.378 8.8354 10.0975C7.99393 9.25603 7.15249 8.55481 6.45127 7.71334C6.31103 7.5731 6.17077 7.15236 6.31102 6.87188C6.45126 6.45114 6.872 6.3109 7.01224 6.17065Z" fill="#EB6B2A"/>
<path d="M36.3232 35.4821C36.6036 35.6223 36.7439 35.7625 36.8841 35.9028C37.7256 36.604 38.4268 37.4455 39.2683 38.1467C39.689 38.5674 39.689 38.9882 39.4086 39.2687C39.1281 39.5491 38.7073 39.5491 38.2866 39.1284C37.4451 38.2869 36.7439 37.5857 35.9024 36.7443C35.7622 36.604 35.6219 36.1833 35.7622 35.9028C35.7622 35.7625 36.0427 35.6223 36.3232 35.4821Z" fill="#EB6B2A"/>
<path d="M39.6889 7.01224C39.5487 7.29273 39.4085 7.43298 39.2682 7.57322C38.4268 8.41469 37.7255 9.11591 36.8841 9.95737C36.6036 10.2379 36.1829 10.3781 35.7621 9.95737C35.4816 9.67688 35.4816 9.25615 35.7621 8.83542C36.6036 7.99395 37.3048 7.15249 38.1463 6.45126C38.2865 6.31102 38.7072 6.17078 38.9877 6.31102C39.2682 6.45127 39.4085 6.872 39.6889 7.01224Z" fill="#EB6B2A"/>
<path d="M7.01197 39.5488C6.87173 39.4086 6.59125 39.2683 6.451 38.9879C6.31076 38.8476 6.451 38.4269 6.451 38.2866C7.29247 37.4452 8.13393 36.4635 9.11564 35.622C9.39612 35.3415 9.81683 35.3415 10.0973 35.622C10.3778 35.9025 10.3778 36.3232 10.0973 36.6037C9.25585 37.4452 8.41441 38.2866 7.57294 39.1281C7.4327 39.4086 7.29246 39.5488 7.01197 39.5488Z" fill="#EB6B2A"/>
</svg>
