<svg width="50" height="50" viewBox="0 0 50 50" fill="none" xmlns="http://www.w3.org/2000/svg">
<path d="M48.4797 1.42357C47.7299 1.42357 46.8552 1.42357 46.1055 1.42357C40.9822 1.67349 36.1088 2.79812 31.4853 5.04737C25.8622 7.67151 21.1137 11.4203 17.365 16.4186C14.7408 19.7925 12.8664 23.5413 11.4919 27.54C11.3669 27.7899 11.4919 27.9148 11.6168 28.0398C12.7415 29.1644 13.8661 30.2891 14.9907 31.4137C15.1157 31.5386 15.2407 31.7886 15.2407 32.0385C15.2407 32.2884 15.1157 32.5383 14.8658 32.6633C14.6159 32.7882 14.241 32.7882 14.116 32.5383C13.4912 31.9135 12.9914 31.4137 12.3666 30.7889C11.6168 30.0391 10.9921 29.2894 10.2423 28.6646C9.99238 28.4147 9.86742 28.0398 9.99238 27.6649C11.6168 22.7915 13.9911 18.293 17.365 14.2943C20.7388 10.1707 24.8625 6.92176 29.486 4.54754C33.7346 2.29828 38.358 0.923734 43.1065 0.29894C45.1058 0.0490219 47.1051 -0.0759369 49.1045 0.0490219C49.7293 0.0490219 49.8542 0.298939 49.9792 0.923734C50.2291 9.04606 48.2298 16.5436 43.8562 23.5413C39.4827 30.414 33.4846 35.5373 25.9871 38.7863C24.8625 39.2861 23.6129 39.661 22.3633 40.1608C21.9884 40.2858 21.7385 40.2858 21.4886 39.9109C20.239 38.6613 18.8645 37.2867 17.6149 36.0372C17.365 35.7872 17.24 35.4124 17.4899 35.0375C17.7398 34.6626 18.2397 34.6626 18.6145 35.0375C19.7392 36.1621 20.8638 37.2867 21.9884 38.4114C22.2383 38.6613 22.3633 38.6613 22.6132 38.5363C28.1114 36.662 32.9848 33.6629 37.1084 29.6643C41.9818 24.9158 45.2308 19.2927 47.1051 12.9198C48.1048 9.42093 48.6046 5.79713 48.6046 2.04836C48.6046 1.79845 48.4797 1.67349 48.4797 1.42357Z" fill="#EB6B2A"/>
<path d="M41.6063 16.0438C41.6063 20.2923 38.2324 23.6662 33.9838 23.6662C29.7352 23.6662 26.3613 20.2923 26.3613 16.0438C26.3613 11.9201 29.7352 8.42126 33.8589 8.42126C38.2324 8.42126 41.6063 11.7952 41.6063 16.0438ZM40.1068 16.1687C40.1068 12.6699 37.3577 9.92077 33.8589 9.92077C30.36 9.92077 27.6109 12.6699 27.6109 16.1687C27.6109 19.6676 30.36 22.4166 33.8589 22.4166C37.3577 22.2917 40.1068 19.5426 40.1068 16.1687Z" fill="#EB6B2A"/>
<path d="M22.4884 48.0331C23.3631 47.5332 24.2378 46.9084 24.9876 46.2837C27.4867 44.0344 28.8613 41.2853 29.4861 38.0364C29.611 37.5365 29.861 37.2866 30.2358 37.2866C30.7357 37.2866 30.9856 37.6615 30.9856 38.1613C30.8606 38.7861 30.7357 39.5359 30.4858 40.1607C29.1112 44.4093 26.612 47.5332 22.7383 49.6575C21.8636 50.1574 21.4887 49.9075 21.3638 49.0327C20.8639 46.4086 20.3641 43.6595 19.8643 41.0354C19.8643 40.7855 19.8643 40.5355 19.8643 40.4106C19.9892 40.1607 20.2391 40.0357 20.614 40.0357C20.8639 40.0357 21.1138 40.2856 21.2388 40.5355C21.3638 41.2853 21.4887 42.0351 21.7386 42.9098C21.8636 44.6592 22.2385 46.2837 22.4884 48.0331Z" fill="#EB6B2A"/>
<path d="M1.8701 27.415C2.61985 27.54 3.36961 27.665 3.9944 27.7899C5.74382 28.1648 7.49325 28.4147 9.11771 28.7896C9.24267 28.7896 9.24267 28.7896 9.36763 28.7896C9.74251 28.9145 9.99242 29.2894 9.86747 29.6643C9.74251 30.0392 9.49259 30.2891 8.99275 30.1641C7.99308 29.9142 6.86845 29.7893 5.86878 29.5393C4.24432 29.1645 2.61985 28.9145 0.870431 28.5397C0.745472 28.5397 0.745472 28.5397 0.620514 28.5397C-0.0042804 28.4147 -0.129239 28.0398 0.120678 27.415C0.870431 26.0405 1.74514 24.6659 2.86977 23.5413C5.24399 21.0421 8.11804 19.6676 11.367 18.9178C11.4919 18.9178 11.6169 18.9178 11.6169 18.7929C11.9918 18.6679 12.3666 18.9178 12.4916 19.2927C12.6166 19.6676 12.3666 20.0425 11.8668 20.1674C11.1171 20.4173 10.2423 20.5423 9.49259 20.7922C6.24366 21.9169 3.74448 23.9162 1.8701 26.7902C1.99506 27.1651 1.99506 27.2901 1.8701 27.415Z" fill="#EB6B2A"/>
<path d="M10.7422 38.5364C10.8671 38.4115 10.9921 38.1616 11.1171 38.0366C13.4913 35.6624 15.7405 33.4131 18.1148 31.0389C18.9895 30.1642 19.7392 29.4144 20.6139 28.5397C20.9888 28.1649 21.3637 28.1649 21.7386 28.4148C21.9885 28.6647 21.9885 29.1645 21.6136 29.5394C18.8645 32.2885 16.1154 35.1626 13.2414 37.9116C12.8665 38.2865 12.4916 38.7864 11.9918 39.1612C11.7419 39.4112 11.4919 39.4112 11.242 39.2862C10.8671 39.1612 10.7422 38.9113 10.7422 38.5364Z" fill="#EB6B2A"/>
<path d="M7.49323 41.7853C7.74315 41.9102 7.99307 42.0352 8.11802 42.2851C8.24298 42.535 8.11802 42.7849 7.99307 43.0349C7.86811 43.1598 7.61819 43.4097 7.49323 43.6597C5.99372 45.1592 4.49422 46.7836 2.86975 48.2831C2.61984 48.4081 2.49488 48.5331 2.24496 48.5331C1.99504 48.5331 1.74512 48.4081 1.62017 48.1582C1.49521 47.7833 1.49521 47.5334 1.74512 47.2835C2.74479 46.2838 3.74447 45.2841 4.74414 44.2845C5.49389 43.5347 6.11868 42.9099 6.86844 42.1602C7.11835 42.0352 7.24331 41.9102 7.49323 41.7853Z" fill="#EB6B2A"/>
<path d="M6.36922 36.662C6.99401 36.662 7.36889 37.2868 7.11897 37.6617C6.99401 37.7866 6.99401 37.9116 6.86905 38.0365C5.24459 39.661 3.62013 41.2855 1.99566 42.9099L1.8707 43.0349C1.49583 43.2848 1.12095 43.4098 0.871032 43.0349C0.621114 42.785 0.621114 42.2851 0.871032 42.0352C2.12062 40.7856 3.37021 39.536 4.6198 38.2865C5.11963 37.7866 5.49451 37.4117 5.99434 37.0369C6.1193 36.7869 6.36922 36.662 6.36922 36.662Z" fill="#EB6B2A"/>
<path d="M13.3654 43.6597C13.3654 43.7847 13.2404 43.9097 13.1155 44.1596C11.3661 45.909 9.74159 47.5335 7.99217 49.2829C7.61729 49.6578 7.24241 49.6578 6.86754 49.2829C6.61762 49.033 6.61762 48.5331 6.9925 48.2832C8.74192 46.5338 10.3664 44.9093 12.1158 43.1599C12.3657 42.91 12.6156 42.785 12.9905 42.91C13.2404 43.0349 13.3654 43.1599 13.3654 43.6597Z" fill="#EB6B2A"/>
</svg>
